HIERARCHY
ROOT Hips
{
	OFFSET 0.000000 0.000000 0.000000
	CHANNELS 6 Xposition Yposition Zposition Zrotation Yrotation Xrotation 
	JOINT LHipJoint
	{
		OFFSET 0.000000 0.000000 0.000000
		CHANNELS 3 Zrotation Yrotation Xrotation
		JOINT LeftUpLeg
		{
			OFFSET 1.363060 -1.794630 0.839290
			CHANNELS 3 Zrotation Yrotation Xrotation
			JOINT LeftLeg
			{
				OFFSET 2.448110 -6.726130 0.000000
				CHANNELS 3 Zrotation Yrotation Xrotation
				JOINT LeftFoot
				{
					OFFSET 2.562200 -7.039590 0.000000
					CHANNELS 3 Zrotation Yrotation Xrotation
					JOINT LeftToeBase
					{
						OFFSET 0.157640 -0.433110 2.322550
						CHANNELS 3 Zrotation Yrotation Xrotation
						End Site
						{
							OFFSET 0.000000 0.000000 0.000000
						}
					}
				}
			}
		}
	}
	JOINT RHipJoint
	{
		OFFSET 0.000000 0.000000 0.000000
		CHANNELS 3 Zrotation Yrotation Xrotation
		JOINT RightUpLeg
		{
			OFFSET -1.305520 -1.794630 0.839290
			CHANNELS 3 Zrotation Yrotation Xrotation
			JOINT RightLeg
			{
				OFFSET -2.542530 -6.985550 0.000000
				CHANNELS 3 Zrotation Yrotation Xrotation
				JOINT RightFoot
				{
					OFFSET -2.568260 -7.056230 0.000000
					CHANNELS 3 Zrotation Yrotation Xrotation
					JOINT RightToeBase
					{
						OFFSET -0.164730 -0.452590 2.363150
						CHANNELS 3 Zrotation Yrotation Xrotation
						End Site
						{
							OFFSET 0.000000 0.000000 0.000000
						}
					}
				}
			}
		}
	}
}
MOTION
Frames: 13
Frame Time: 0.008333
7.011263 15.562990 1.158904 -138.057150 -85.215328 163.432356 -7.974902 -1.207426 -0.143287 -17.151614 0.017180 -71.805667 -2.139587 3.257151 42.872951 2.592920 10.036274 -9.917028 0.296301 -0.000000 -20.460300 10.694879 -1.624264 -5.864504 11.848146 -14.673906 -25.719688 2.711051 -4.074100 55.347779 0.377209 10.766615 -23.223109 -2.364200 -0.000000 -62.089100
6.857297 15.531572 1.166664 -138.499631 -84.965993 163.619167 -8.010382 -1.251442 -0.265316 -16.785461 0.227225 -72.046782 -1.901641 3.462424 44.968751 2.573436 10.196707 -9.502328 0.357400 -0.000000 -18.775400 10.796477 -1.641697 -5.848721 11.396267 -14.730840 -25.009294 2.588518 -4.076556 55.692057 0.464934 11.101027 -22.375202 -2.387500 0.000000 -64.027000
6.702579 15.503091 1.173354 -139.066305 -84.752148 163.940553 -8.040066 -1.273897 -0.393436 -16.557607 0.479523 -72.215912 -1.705973 3.647929 46.906158 2.554724 10.289514 -9.326272 0.367100 0.000000 -17.107500 10.893991 -1.657569 -5.822767 10.928988 -14.769954 -24.320125 2.457529 -4.075896 56.006091 0.549830 11.406975 -21.424560 -2.377100 -0.000001 -66.028600
6.546928 15.477781 1.179367 -139.617855 -84.573741 164.263353 -8.065406 -1.277073 -0.522579 -16.447650 0.764685 -72.308588 -1.551698 3.813351 48.666594 2.540309 10.329290 -9.414947 0.321900 0.000000 -15.469500 10.985512 -1.676547 -5.785884 10.465542 -14.792266 -23.655832 2.321167 -4.072583 56.281969 0.629058 11.673998 -20.384731 -2.329700 0.000000 -68.028200
6.390445 15.455825 1.185221 -140.027500 -84.426993 164.462610 -8.087428 -1.264844 -0.648680 -16.427993 1.073877 -72.324111 -1.434730 3.958855 50.245893 2.532267 10.331039 -9.762240 0.224900 -0.000000 -13.970500 11.070214 -1.702070 -5.737859 10.025251 -14.797492 -23.020294 2.182412 -4.067358 56.517553 0.699800 11.891149 -19.277198 -2.244700 -0.000000 -69.950801
6.233249 15.437428 1.191132 -140.318443 -84.308267 164.559956 -8.106612 -1.238029 -0.769371 -16.477656 1.396057 -72.256294 -1.351506 4.085418 51.648734 2.532588 10.308455 -10.359668 0.078900 -0.000000 -12.535700 11.148907 -1.732965 -5.681311 9.609475 -14.793693 -22.416106 2.041477 -4.060749 56.719861 0.760833 12.052521 -18.109295 -2.122700 -0.000000 -71.751901
6.075471 15.422668 1.197474 -140.468482 -84.211400 164.534310 -8.123947 -1.200046 -0.882180 -16.569084 1.720790 -72.106093 -1.295885 4.193679 52.886559 2.541899 10.274697 -11.163514 -0.106500 0.000000 -11.242800 11.222129 -1.768854 -5.617651 9.224979 -14.781226 -21.849231 1.898941 -4.053655 56.899153 0.810710 12.150399 -16.895464 -1.966099 0.000000 -73.374000
5.917511 15.411501 1.204727 -140.397846 -84.128642 164.306792 -8.139987 -1.157137 -0.984521 -16.668229 2.037502 -71.883836 -1.259974 4.284020 53.979210 2.560042 10.241066 -12.115872 -0.320000 0.000000 -10.170300 11.290483 -1.810292 -5.547339 8.885831 -14.752929 -21.327133 1.755956 -4.047362 57.068101 0.847894 12.175268 -15.659227 -1.779801 0.000000 -74.755100
5.759631 15.403926 1.213001 -140.185705 -84.054532 163.958089 -8.155849 -1.111160 -1.074929 -16.756327 2.333131 -71.593350 -1.237472 4.357557 54.943037 2.587370 10.222254 -13.157337 -0.550500 0.000000 -9.326300 11.354993 -1.853691 -5.472745 8.586466 -14.709021 -20.860311 1.610297 -4.042948 57.247230 0.872530 12.124508 -14.397913 -1.567400 -0.000000 -75.887700
5.602450 15.399957 1.222364 -139.899119 -83.983816 163.554671 -8.172701 -1.065116 -1.152294 -16.815635 2.595610 -71.244317 -1.221774 4.415537 55.795420 2.623688 10.232373 -14.224837 -0.787000 0.000000 -8.738200 11.416109 -1.895667 -5.395721 8.324647 -14.645087 -20.461614 1.459499 -4.041709 57.458652 0.884637 11.995464 -13.106955 -1.332800 0.000000 -76.773000
5.446471 15.399501 1.232757 -139.609085 -83.912254 163.170432 -8.191826 -1.021122 -1.215717 -16.835520 2.814253 -70.849223 -1.207196 4.459516 56.552283 2.668692 10.284749 -15.262111 -1.020600 0.000000 -8.414700 11.474067 -1.932971 -5.317319 8.097100 -14.555506 -20.145994 1.300647 -4.044731 57.724452 0.884339 11.788137 -11.773165 -1.078900 -0.000000 -77.427700
5.292240 15.402434 1.244098 -139.396572 -83.836428 162.888547 -8.214413 -0.980553 -1.265063 -16.811932 2.981952 -70.421518 -1.189593 4.491331 57.226333 2.721903 10.390013 -16.225441 -1.244600 -0.000000 -8.341400 11.528692 -1.962241 -5.238069 7.899966 -14.433466 -19.928265 1.130534 -4.052713 58.064992 0.871508 11.503630 -10.376182 -0.808100 0.000000 -77.877300
5.140276 15.408624 1.256172 -139.331130 -83.753995 162.781317 -8.241397 -0.944059 -1.300998 -16.747688 3.096245 -69.974973 -1.166677 4.512967 57.826946 2.782682 10.554292 -17.087122 -1.455500 0.000000 -8.480999 11.579528 -1.980639 -5.157948 7.729996 -14.272594 -19.821973 0.946493 -4.065894 58.497006 0.845658 11.145221 -8.892785 -0.522600 -0.000000 -78.144500
